<svg width="60" height="66" viewBox="0 0 60 66" fill="none" xmlns="http://www.w3.org/2000/svg">
<path fill-rule="evenodd" clip-rule="evenodd" d="M17.0868 19.4236C17.0868 17.3567 18.3124 15.2825 20.7118 13.6461C23.1017 12.0168 26.5023 10.9488 30.3492 10.9488C34.1962 10.9488 37.5968 12.0168 39.9867 13.6461C41.1958 14.4715 42.1073 15.4086 42.7142 16.3981C43.451 15.0423 43.7698 13.6009 43.5975 12.1643C43.5856 12.0691 43.5975 11.974 43.6234 11.886C43.1322 11.4412 42.6032 11.0249 42.0436 10.6444C38.9736 8.54886 34.8338 7.31201 30.3516 7.31201C25.8694 7.31201 21.7296 8.54886 18.6596 10.6444C15.5943 12.7351 13.4453 15.8082 13.4453 19.4236C13.4453 23.039 15.5943 26.1121 18.6549 28.2005C21.7249 30.296 25.8647 31.5328 30.3469 31.5328C34.8291 31.5328 38.9712 30.296 42.0388 28.2005C45.0994 26.1121 47.2484 23.0414 47.2484 19.4236C47.2484 17.1236 46.3794 15.0447 44.9601 13.2988C44.8869 14.9091 44.3177 16.4552 43.3731 17.8633C43.529 18.3794 43.6069 18.9027 43.6069 19.4236C43.6069 21.4906 42.3813 23.5647 39.9819 25.2011C37.5921 26.8304 34.1914 27.8984 30.3445 27.8984C26.4975 27.8984 23.0969 26.8304 20.707 25.2011C18.3101 23.5647 17.0821 21.4906 17.0821 19.4236H17.0868Z" fill="#3762FF"/>
<path fill-rule="evenodd" clip-rule="evenodd" d="M17.0558 15.2018C16.0853 17.9514 16.3143 20.4322 17.5777 22.2114C18.8412 23.9906 21.1106 25.03 24.0318 25.03C26.9483 25.03 30.349 23.9739 33.4733 21.7666C36.5976 19.5593 38.7253 16.7122 39.6936 13.9673C40.6642 11.2177 40.4351 8.73689 39.1717 6.95773C37.9082 5.17857 35.6388 4.13915 32.7176 4.13915C29.8011 4.13915 26.4005 5.19522 23.2761 7.40252C20.1518 9.60982 18.0241 12.457 17.0558 15.2018ZM13.5631 13.9745C14.8171 10.428 17.462 6.98152 21.1366 4.38652C24.8088 1.78913 28.9462 0.442871 32.7152 0.442871C36.4795 0.442871 40.0502 1.80103 42.1944 4.82179C44.3364 7.84256 44.4379 11.653 43.1863 15.197C41.9323 18.7435 39.2874 22.19 35.6128 24.785C31.9383 27.38 27.8032 28.7263 24.0318 28.7286C20.2675 28.7286 16.6969 27.3705 14.5526 24.3497C12.4083 21.329 12.3092 17.5161 13.5608 13.9745H13.5631Z" fill="#1041F3"/>
<path d="M33.215 43.3035H31.543C31.7544 43.7415 31.9675 44.2389 32.1771 44.7834C32.3989 45.361 32.5964 45.9142 32.761 46.429H34.5301C34.3378 45.895 34.1281 45.3453 33.9063 44.7991C33.6759 44.2301 33.4437 43.7275 33.2133 43.3035H33.215Z" fill="#1A2029"/>
<path d="M33.9679 40.9201C33.8466 40.6356 33.7201 40.3547 33.5902 40.0859C33.4793 39.859 33.3649 39.6339 33.2488 39.4158H33.2124H31.5664C31.6704 39.6234 31.7674 39.8241 31.8627 40.0283C31.9892 40.3075 32.1139 40.5938 32.23 40.8782C32.3444 41.1539 32.457 41.4436 32.5731 41.7595C32.6701 42.0213 32.7619 42.2848 32.8486 42.5413H34.6073C34.5137 42.2813 34.4236 42.0387 34.3318 41.8031C34.1983 41.4646 34.084 41.1836 33.9696 40.9184L33.9679 40.9201Z" fill="#1A2029"/>
<path d="M32.6246 48.764C32.5258 49.3137 32.4166 49.8844 32.2971 50.4585C32.1775 51.0327 32.0476 51.6173 31.909 52.195C31.7808 52.7255 31.6543 53.2246 31.5312 53.6801H33.3332C33.4441 53.2159 33.5585 52.7133 33.6711 52.1845C33.7907 51.6243 33.905 51.0501 34.0124 50.4777C34.1181 49.9106 34.2169 49.3416 34.3053 48.7867C34.3867 48.2753 34.456 47.7954 34.5062 47.3591H32.8429C32.7909 47.7745 32.7164 48.2474 32.6246 48.764Z" fill="#1A2029"/>
<path d="M58.8114 42.5742H47.1914V44.0279H58.8114V42.5742Z" fill="#1A2029"/>
<path d="M18.4543 42.4785H15.9766V44.0352H16.7147V53.7749L19.4159 52.4364V50.597L18.4543 51.1345V42.4785Z" fill="#1A2029"/>
<path d="M16.8582 41.6179H18.8577C18.7416 41.1502 18.6273 40.7314 18.5181 40.3684C18.4245 40.056 18.3188 39.7367 18.1906 39.3911H16.2656C16.3748 39.7227 16.4753 40.0578 16.5654 40.3859C16.6728 40.7837 16.7716 41.1974 16.8582 41.6179Z" fill="#1A2029"/>
<path d="M54.0153 39.9271V39.4158H51.9912V39.9271H46.5078V41.3686H59.5004V39.9271H54.0153Z" fill="#1A2029"/>
<path d="M58.8114 45.2271H47.1914V46.6808H58.8114V45.2271Z" fill="#1A2029"/>
<path d="M47.3281 53.7782H56.0956C57.5184 53.7782 58.6761 52.6857 58.6761 51.3454V47.7417H47.3281V53.7799V53.7782ZM49.2206 49.1815H56.7749V51.3454C56.7749 51.8917 56.307 52.3367 55.7334 52.3367H49.2206V49.1815Z" fill="#1A2029"/>
<path d="M40.9318 43.5429H44.1258V42.0997H40.9318V41.3685H44.7047V39.927H40.9318V39.4156H38.9077V39.927H35.1348V41.3685H38.9077V42.0997H35.7137V43.5429H38.9077V44.2742H35.043V45.7157H44.7965V44.2742H40.9318V43.5429Z" fill="#1A2029"/>
<path d="M35.6133 53.7781H37.504V52.1307V51.6019H42.2699C42.1434 52.0138 41.743 52.3157 41.2717 52.3157H41.0602V53.7572H41.6339C43.0567 53.7572 44.2144 52.6647 44.2144 51.3227V46.3193H35.6133V53.7781ZM37.5058 50.417V49.7172H42.3132V50.417H37.5058ZM42.3132 47.7626V48.5322H37.5058V47.7626H42.3132Z" fill="#1A2029"/>
<path d="M1.3125 53.777H10.2619C11.6847 53.777 12.8424 52.6845 12.8424 51.3442V47.21H1.3125V53.777ZM10.08 52.3355H3.20498V51.086H10.9413V51.3442C10.9413 51.8905 10.6553 52.3355 10.0817 52.3355H10.08ZM10.9395 48.6515V49.9027H3.20325V48.6515H10.9395Z" fill="#1A2029"/>
<path d="M20.168 53.7758H26.3705C27.7933 53.7758 28.951 52.6833 28.951 51.3413V47.207H20.1697V53.7741L20.168 53.7758ZM26.0083 52.3326H22.0604V51.083H27.0499V51.3413C27.0499 51.8875 26.582 52.3326 26.0083 52.3326ZM27.0499 48.6485V49.8998H22.0604V48.6485H27.0499Z" fill="#1A2029"/>
<path d="M27.1634 41.6807H29.5602V40.3387H27.5222L27.5932 40.2026C27.6764 40.0438 27.7475 39.8902 27.8064 39.7349C27.8566 39.6023 27.8965 39.4801 27.926 39.3684H25.8359C25.7631 39.679 25.6522 39.981 25.4962 40.2899L25.4702 40.3405H24.0578L24.037 40.2794C23.9816 40.1223 23.9174 39.9635 23.8412 39.7942C23.7753 39.6529 23.7043 39.5133 23.6211 39.3702H23.5812H21.59C21.6385 39.4731 21.6887 39.5831 21.7373 39.7C21.8066 39.8605 21.8707 40.0298 21.9314 40.2183L21.9712 40.3405H19.8361V41.6825H22.2849V45.2723H19.6992V46.6806H29.6018V45.2723H27.1634V41.6825V41.6807ZM25.5552 45.2705H23.8776V41.6807H25.5552V45.2705Z" fill="#1A2029"/>
<path d="M21.9435 44.5762C21.7789 43.7961 21.5571 43.0632 21.2833 42.3948H19.7031C19.8348 42.7508 19.9509 43.1085 20.0497 43.4611C20.1536 43.8328 20.2403 44.208 20.3078 44.578H21.9452L21.9435 44.5762Z" fill="#1A2029"/>
<path d="M27.757 43.4777C27.6583 43.8233 27.5266 44.1863 27.3672 44.5597H28.9578C29.1068 44.2107 29.2385 43.846 29.3476 43.4742C29.4516 43.1182 29.5382 42.743 29.6041 42.3608H28.0152C27.9476 42.7395 27.861 43.1165 27.757 43.4777Z" fill="#1A2029"/>
<path d="M7.40625 46.6793H10.8914C12.3142 46.6793 13.4719 45.5868 13.4719 44.2465V39.9272H7.40625V46.6793ZM9.29873 41.3687H11.5707V44.2448C11.5707 44.791 11.1028 45.236 10.5292 45.236H9.297V41.3687H9.29873Z" fill="#1A2029"/>
<path d="M0.557191 46.5973C1.69753 46.2709 2.71483 45.6584 3.51376 44.8207C4.39241 45.7439 5.52409 46.3861 6.79787 46.681V45.1785C6.00934 44.9324 5.31439 44.5118 4.75462 43.9551H6.79787V42.5136H4.6489V41.4316H6.74241V39.9884H3.11689L3.38032 39.3898H1.37345L1.13256 39.9343L1.1083 39.9884H1.0875L0.981785 40.2379L0.5 41.4299H2.47567H2.79281V42.5119H0.579721V43.9534H2.2625C1.78245 44.4298 1.20188 44.8085 0.551992 45.0598V46.5938L0.557191 46.5973Z" fill="#1A2029"/>
<path d="M9.22597 63.7158C8.82064 63.7158 8.4473 63.6411 8.10597 63.4918C7.76464 63.3425 7.46864 63.1398 7.21797 62.8838C6.9673 62.6225 6.76997 62.3158 6.62597 61.9638C6.4873 61.6118 6.41797 61.2358 6.41797 60.8358V60.8198C6.41797 60.4251 6.4873 60.0518 6.62597 59.6998C6.76997 59.3478 6.9673 59.0411 7.21797 58.7798C7.46864 58.5131 7.7673 58.3051 8.11397 58.1558C8.46064 58.0011 8.8393 57.9238 9.24997 57.9238C9.50597 57.9238 9.7353 57.9451 9.93797 57.9878C10.146 58.0305 10.338 58.0918 10.514 58.1718C10.69 58.2465 10.8526 58.3398 11.002 58.4518C11.1513 58.5585 11.2953 58.6785 11.434 58.8118L11.002 59.2758C10.762 59.0518 10.5033 58.8678 10.226 58.7238C9.95397 58.5798 9.62597 58.5078 9.24197 58.5078C8.93264 58.5078 8.64464 58.5665 8.37797 58.6838C8.11664 58.8011 7.8873 58.9638 7.68997 59.1718C7.49797 59.3798 7.34597 59.6251 7.23397 59.9078C7.1273 60.1851 7.07397 60.4838 7.07397 60.8038V60.8198C7.07397 61.1451 7.1273 61.4491 7.23397 61.7318C7.34597 62.0091 7.49797 62.2518 7.68997 62.4598C7.8873 62.6678 8.11664 62.8331 8.37797 62.9558C8.64464 63.0731 8.93264 63.1318 9.24197 63.1318C9.62597 63.1318 9.95664 63.0625 10.234 62.9238C10.5113 62.7798 10.7833 62.5798 11.05 62.3238L11.466 62.7318C11.322 62.8811 11.17 63.0171 11.01 63.1398C10.8553 63.2571 10.6873 63.3585 10.506 63.4438C10.3246 63.5291 10.13 63.5958 9.92197 63.6438C9.71397 63.6918 9.48197 63.7158 9.22597 63.7158Z" fill="#1A2029"/>
<path d="M12.4682 57.7798H13.0842V60.2038C13.2229 59.9798 13.4042 59.7905 13.6282 59.6358C13.8522 59.4758 14.1429 59.3958 14.5002 59.3958C14.7509 59.3958 14.9722 59.4358 15.1642 59.5158C15.3616 59.5958 15.5269 59.7105 15.6602 59.8598C15.7989 60.0038 15.9029 60.1771 15.9722 60.3798C16.0469 60.5825 16.0842 60.8065 16.0842 61.0518V63.6198H15.4682V61.2038C15.4682 60.8198 15.3696 60.5158 15.1722 60.2918C14.9749 60.0678 14.6922 59.9558 14.3242 59.9558C14.1482 59.9558 13.9829 59.9878 13.8282 60.0518C13.6789 60.1105 13.5482 60.1985 13.4362 60.3158C13.3242 60.4278 13.2362 60.5638 13.1722 60.7238C13.1136 60.8838 13.0842 61.0598 13.0842 61.2518V63.6198H12.4682V57.7798Z" fill="#1A2029"/>
<path d="M18.7499 63.2118C18.9419 63.2118 19.1206 63.1851 19.2859 63.1318C19.4512 63.0785 19.5952 63.0038 19.7179 62.9078C19.8459 62.8065 19.9446 62.6891 20.0139 62.5558C20.0886 62.4171 20.1259 62.2651 20.1259 62.0998V61.7158C19.9712 61.6731 19.7952 61.6331 19.5979 61.5958C19.4006 61.5585 19.1739 61.5398 18.9179 61.5398C18.5339 61.5398 18.2352 61.6171 18.0219 61.7718C17.8139 61.9211 17.7099 62.1211 17.7099 62.3718V62.3878C17.7099 62.5158 17.7366 62.6331 17.7899 62.7398C17.8486 62.8411 17.9259 62.9265 18.0219 62.9958C18.1179 63.0651 18.2272 63.1185 18.3499 63.1558C18.4779 63.1931 18.6112 63.2118 18.7499 63.2118ZM18.6299 63.7078C18.4379 63.7078 18.2486 63.6811 18.0619 63.6278C17.8752 63.5745 17.7099 63.4945 17.5659 63.3878C17.4219 63.2758 17.3046 63.1398 17.2139 62.9798C17.1286 62.8198 17.0859 62.6331 17.0859 62.4198V62.4038C17.0859 62.1798 17.1286 61.9851 17.2139 61.8198C17.2992 61.6491 17.4192 61.5078 17.5739 61.3958C17.7339 61.2838 17.9206 61.1985 18.1339 61.1398C18.3526 61.0811 18.5926 61.0518 18.8539 61.0518C19.1206 61.0518 19.3499 61.0678 19.5419 61.0998C19.7392 61.1318 19.9312 61.1745 20.1179 61.2278V61.0998C20.1179 60.7318 20.0112 60.4545 19.7979 60.2678C19.5846 60.0758 19.2832 59.9798 18.8939 59.9798C18.6486 59.9798 18.4246 60.0065 18.2219 60.0598C18.0246 60.1131 17.8299 60.1851 17.6379 60.2758L17.4539 59.7718C17.6832 59.6651 17.9152 59.5798 18.1499 59.5158C18.3846 59.4518 18.6539 59.4198 18.9579 59.4198C19.5446 59.4198 19.9899 59.5718 20.2939 59.8758C20.5819 60.1638 20.7259 60.5691 20.7259 61.0918V63.6198H20.1179V63.0038C19.9739 63.1905 19.7792 63.3558 19.5339 63.4998C19.2939 63.6385 18.9926 63.7078 18.6299 63.7078Z" fill="#1A2029"/>
<path d="M23.4147 63.6918C23.2494 63.6918 23.0947 63.6705 22.9507 63.6278C22.8067 63.5851 22.6814 63.5185 22.5747 63.4278C22.4734 63.3318 22.3934 63.2091 22.3347 63.0598C22.2761 62.9105 22.2467 62.7318 22.2467 62.5238V60.0278H21.6707V59.4838H22.2467V58.2358H22.8627V59.4838H24.1747V60.0278H22.8627V62.4438C22.8627 62.6998 22.9267 62.8785 23.0547 62.9798C23.1827 63.0811 23.3507 63.1318 23.5587 63.1318C23.6654 63.1318 23.7641 63.1211 23.8547 63.0998C23.9507 63.0785 24.0521 63.0411 24.1587 62.9878V63.5158C24.0521 63.5745 23.9374 63.6171 23.8147 63.6438C23.6974 63.6758 23.5641 63.6918 23.4147 63.6918Z" fill="#1A2029"/>
<path d="M27.9691 63.7158C27.5264 63.7158 27.1291 63.6411 26.7771 63.4918C26.4304 63.3425 26.1318 63.1371 25.8811 62.8758C25.6358 62.6145 25.4464 62.3105 25.3131 61.9638C25.1851 61.6118 25.1211 61.2358 25.1211 60.8358V60.8198C25.1211 60.4358 25.1878 60.0705 25.3211 59.7238C25.4598 59.3718 25.6518 59.0625 25.8971 58.7958C26.1424 58.5291 26.4358 58.3185 26.7771 58.1638C27.1238 58.0038 27.5078 57.9238 27.9291 57.9238C28.1638 57.9238 28.3771 57.9398 28.5691 57.9718C28.7664 58.0038 28.9478 58.0518 29.1131 58.1158C29.2838 58.1798 29.4411 58.2598 29.5851 58.3558C29.7344 58.4465 29.8784 58.5505 30.0171 58.6678L29.6091 59.1478C29.5024 59.0518 29.3904 58.9665 29.2731 58.8918C29.1558 58.8118 29.0278 58.7451 28.8891 58.6918C28.7558 58.6331 28.6064 58.5878 28.4411 58.5558C28.2811 58.5238 28.1024 58.5078 27.9051 58.5078C27.5958 58.5078 27.3104 58.5691 27.0491 58.6918C26.7878 58.8145 26.5638 58.9798 26.3771 59.1878C26.1904 59.3958 26.0438 59.6411 25.9371 59.9238C25.8304 60.2011 25.7771 60.4945 25.7771 60.8038V60.8198C25.7771 61.1558 25.8278 61.4651 25.9291 61.7478C26.0358 62.0305 26.1851 62.2758 26.3771 62.4838C26.5691 62.6918 26.8011 62.8545 27.0731 62.9718C27.3451 63.0891 27.6518 63.1478 27.9931 63.1478C28.3131 63.1478 28.6144 63.0945 28.8971 62.9878C29.1798 62.8758 29.4171 62.7425 29.6091 62.5878V61.1958H27.9051V60.6278H30.2171V62.8598C29.9558 63.0945 29.6331 63.2971 29.2491 63.4678C28.8704 63.6331 28.4438 63.7158 27.9691 63.7158Z" fill="#1A2029"/>
<path d="M31.6425 58.0198H32.2745V63.0358H35.4265V63.6198H31.6425V58.0198Z" fill="#1A2029"/>
<path d="M36.5957 58.0198H37.2357L39.2757 61.0758L41.3157 58.0198H41.9557V63.6198H41.3237V59.0838L39.2837 62.0838H39.2517L37.2117 59.0918V63.6198H36.5957V58.0198Z" fill="#1A2029"/>
<path d="M43.365 62.7798H44.101V63.6198H43.365V62.7798Z" fill="#1A2029"/>
<path d="M47.2619 63.7158C46.9579 63.7158 46.6752 63.6598 46.4139 63.5478C46.1579 63.4305 45.9339 63.2758 45.7419 63.0838C45.5552 62.8865 45.4086 62.6571 45.3019 62.3958C45.1952 62.1345 45.1419 61.8598 45.1419 61.5718V61.5558C45.1419 61.2625 45.1952 60.9851 45.3019 60.7238C45.4086 60.4625 45.5552 60.2331 45.7419 60.0358C45.9339 59.8385 46.1579 59.6838 46.4139 59.5718C46.6752 59.4545 46.9579 59.3958 47.2619 59.3958C47.4592 59.3958 47.6379 59.4145 47.7979 59.4518C47.9579 59.4891 48.1046 59.5425 48.2379 59.6118C48.3712 59.6758 48.4939 59.7531 48.6059 59.8438C48.7179 59.9345 48.8219 60.0305 48.9179 60.1318L48.5099 60.5638C48.3446 60.3931 48.1632 60.2465 47.9659 60.1238C47.7739 60.0011 47.5366 59.9398 47.2539 59.9398C47.0459 59.9398 46.8512 59.9825 46.6699 60.0678C46.4886 60.1478 46.3312 60.2598 46.1979 60.4038C46.0646 60.5478 45.9606 60.7185 45.8859 60.9158C45.8112 61.1078 45.7739 61.3158 45.7739 61.5398V61.5558C45.7739 61.7798 45.8112 61.9905 45.8859 62.1878C45.9659 62.3798 46.0726 62.5505 46.2059 62.6998C46.3446 62.8438 46.5046 62.9585 46.6859 63.0438C46.8726 63.1238 47.0752 63.1638 47.2939 63.1638C47.5606 63.1638 47.7952 63.1051 47.9979 62.9878C48.2059 62.8705 48.3926 62.7238 48.5579 62.5478L48.9499 62.9158C48.7419 63.1505 48.5046 63.3425 48.2379 63.4918C47.9766 63.6411 47.6512 63.7158 47.2619 63.7158Z" fill="#1A2029"/>
<path d="M49.9682 59.4838H50.5842V60.2038C50.7229 59.9798 50.9042 59.7905 51.1282 59.6358C51.3522 59.4758 51.6429 59.3958 52.0002 59.3958C52.2509 59.3958 52.4722 59.4358 52.6642 59.5158C52.8616 59.5958 53.0269 59.7105 53.1602 59.8598C53.2989 60.0038 53.4029 60.1771 53.4722 60.3798C53.5469 60.5825 53.5842 60.8065 53.5842 61.0518V63.6198H52.9682V61.2038C52.9682 60.8198 52.8696 60.5158 52.6722 60.2918C52.4749 60.0678 52.1922 59.9558 51.8242 59.9558C51.6482 59.9558 51.4829 59.9878 51.3282 60.0518C51.1789 60.1105 51.0482 60.1985 50.9362 60.3158C50.8242 60.4278 50.7362 60.5638 50.6722 60.7238C50.6136 60.8838 50.5842 61.0598 50.5842 61.2518V63.6198H49.9682V59.4838Z" fill="#1A2029"/>
<path d="M9.22597 63.7158C8.82064 63.7158 8.4473 63.6411 8.10597 63.4918C7.76464 63.3425 7.46864 63.1398 7.21797 62.8838C6.9673 62.6225 6.76997 62.3158 6.62597 61.9638C6.4873 61.6118 6.41797 61.2358 6.41797 60.8358V60.8198C6.41797 60.4251 6.4873 60.0518 6.62597 59.6998C6.76997 59.3478 6.9673 59.0411 7.21797 58.7798C7.46864 58.5131 7.7673 58.3051 8.11397 58.1558C8.46064 58.0011 8.8393 57.9238 9.24997 57.9238C9.50597 57.9238 9.7353 57.9451 9.93797 57.9878C10.146 58.0305 10.338 58.0918 10.514 58.1718C10.69 58.2465 10.8526 58.3398 11.002 58.4518C11.1513 58.5585 11.2953 58.6785 11.434 58.8118L11.002 59.2758C10.762 59.0518 10.5033 58.8678 10.226 58.7238C9.95397 58.5798 9.62597 58.5078 9.24197 58.5078C8.93264 58.5078 8.64464 58.5665 8.37797 58.6838C8.11664 58.8011 7.8873 58.9638 7.68997 59.1718C7.49797 59.3798 7.34597 59.6251 7.23397 59.9078C7.1273 60.1851 7.07397 60.4838 7.07397 60.8038V60.8198C7.07397 61.1451 7.1273 61.4491 7.23397 61.7318C7.34597 62.0091 7.49797 62.2518 7.68997 62.4598C7.8873 62.6678 8.11664 62.8331 8.37797 62.9558C8.64464 63.0731 8.93264 63.1318 9.24197 63.1318C9.62597 63.1318 9.95664 63.0625 10.234 62.9238C10.5113 62.7798 10.7833 62.5798 11.05 62.3238L11.466 62.7318C11.322 62.8811 11.17 63.0171 11.01 63.1398C10.8553 63.2571 10.6873 63.3585 10.506 63.4438C10.3246 63.5291 10.13 63.5958 9.92197 63.6438C9.71397 63.6918 9.48197 63.7158 9.22597 63.7158Z" stroke="#1A2029" stroke-width="0.5"/>
<path d="M12.4682 57.7798H13.0842V60.2038C13.2229 59.9798 13.4042 59.7905 13.6282 59.6358C13.8522 59.4758 14.1429 59.3958 14.5002 59.3958C14.7509 59.3958 14.9722 59.4358 15.1642 59.5158C15.3616 59.5958 15.5269 59.7105 15.6602 59.8598C15.7989 60.0038 15.9029 60.1771 15.9722 60.3798C16.0469 60.5825 16.0842 60.8065 16.0842 61.0518V63.6198H15.4682V61.2038C15.4682 60.8198 15.3696 60.5158 15.1722 60.2918C14.9749 60.0678 14.6922 59.9558 14.3242 59.9558C14.1482 59.9558 13.9829 59.9878 13.8282 60.0518C13.6789 60.1105 13.5482 60.1985 13.4362 60.3158C13.3242 60.4278 13.2362 60.5638 13.1722 60.7238C13.1136 60.8838 13.0842 61.0598 13.0842 61.2518V63.6198H12.4682V57.7798Z" stroke="#1A2029" stroke-width="0.5"/>
<path d="M18.7499 63.2118C18.9419 63.2118 19.1206 63.1851 19.2859 63.1318C19.4512 63.0785 19.5952 63.0038 19.7179 62.9078C19.8459 62.8065 19.9446 62.6891 20.0139 62.5558C20.0886 62.4171 20.1259 62.2651 20.1259 62.0998V61.7158C19.9712 61.6731 19.7952 61.6331 19.5979 61.5958C19.4006 61.5585 19.1739 61.5398 18.9179 61.5398C18.5339 61.5398 18.2352 61.6171 18.0219 61.7718C17.8139 61.9211 17.7099 62.1211 17.7099 62.3718V62.3878C17.7099 62.5158 17.7366 62.6331 17.7899 62.7398C17.8486 62.8411 17.9259 62.9265 18.0219 62.9958C18.1179 63.0651 18.2272 63.1185 18.3499 63.1558C18.4779 63.1931 18.6112 63.2118 18.7499 63.2118ZM18.6299 63.7078C18.4379 63.7078 18.2486 63.6811 18.0619 63.6278C17.8752 63.5745 17.7099 63.4945 17.5659 63.3878C17.4219 63.2758 17.3046 63.1398 17.2139 62.9798C17.1286 62.8198 17.0859 62.6331 17.0859 62.4198V62.4038C17.0859 62.1798 17.1286 61.9851 17.2139 61.8198C17.2992 61.6491 17.4192 61.5078 17.5739 61.3958C17.7339 61.2838 17.9206 61.1985 18.1339 61.1398C18.3526 61.0811 18.5926 61.0518 18.8539 61.0518C19.1206 61.0518 19.3499 61.0678 19.5419 61.0998C19.7392 61.1318 19.9312 61.1745 20.1179 61.2278V61.0998C20.1179 60.7318 20.0112 60.4545 19.7979 60.2678C19.5846 60.0758 19.2832 59.9798 18.8939 59.9798C18.6486 59.9798 18.4246 60.0065 18.2219 60.0598C18.0246 60.1131 17.8299 60.1851 17.6379 60.2758L17.4539 59.7718C17.6832 59.6651 17.9152 59.5798 18.1499 59.5158C18.3846 59.4518 18.6539 59.4198 18.9579 59.4198C19.5446 59.4198 19.9899 59.5718 20.2939 59.8758C20.5819 60.1638 20.7259 60.5691 20.7259 61.0918V63.6198H20.1179V63.0038C19.9739 63.1905 19.7792 63.3558 19.5339 63.4998C19.2939 63.6385 18.9926 63.7078 18.6299 63.7078Z" stroke="#1A2029" stroke-width="0.5"/>
<path d="M23.4147 63.6918C23.2494 63.6918 23.0947 63.6705 22.9507 63.6278C22.8067 63.5851 22.6814 63.5185 22.5747 63.4278C22.4734 63.3318 22.3934 63.2091 22.3347 63.0598C22.2761 62.9105 22.2467 62.7318 22.2467 62.5238V60.0278H21.6707V59.4838H22.2467V58.2358H22.8627V59.4838H24.1747V60.0278H22.8627V62.4438C22.8627 62.6998 22.9267 62.8785 23.0547 62.9798C23.1827 63.0811 23.3507 63.1318 23.5587 63.1318C23.6654 63.1318 23.7641 63.1211 23.8547 63.0998C23.9507 63.0785 24.0521 63.0411 24.1587 62.9878V63.5158C24.0521 63.5745 23.9374 63.6171 23.8147 63.6438C23.6974 63.6758 23.5641 63.6918 23.4147 63.6918Z" stroke="#1A2029" stroke-width="0.5"/>
<path d="M27.9691 63.7158C27.5264 63.7158 27.1291 63.6411 26.7771 63.4918C26.4304 63.3425 26.1318 63.1371 25.8811 62.8758C25.6358 62.6145 25.4464 62.3105 25.3131 61.9638C25.1851 61.6118 25.1211 61.2358 25.1211 60.8358V60.8198C25.1211 60.4358 25.1878 60.0705 25.3211 59.7238C25.4598 59.3718 25.6518 59.0625 25.8971 58.7958C26.1424 58.5291 26.4358 58.3185 26.7771 58.1638C27.1238 58.0038 27.5078 57.9238 27.9291 57.9238C28.1638 57.9238 28.3771 57.9398 28.5691 57.9718C28.7664 58.0038 28.9478 58.0518 29.1131 58.1158C29.2838 58.1798 29.4411 58.2598 29.5851 58.3558C29.7344 58.4465 29.8784 58.5505 30.0171 58.6678L29.6091 59.1478C29.5024 59.0518 29.3904 58.9665 29.2731 58.8918C29.1558 58.8118 29.0278 58.7451 28.8891 58.6918C28.7558 58.6331 28.6064 58.5878 28.4411 58.5558C28.2811 58.5238 28.1024 58.5078 27.9051 58.5078C27.5958 58.5078 27.3104 58.5691 27.0491 58.6918C26.7878 58.8145 26.5638 58.9798 26.3771 59.1878C26.1904 59.3958 26.0438 59.6411 25.9371 59.9238C25.8304 60.2011 25.7771 60.4945 25.7771 60.8038V60.8198C25.7771 61.1558 25.8278 61.4651 25.9291 61.7478C26.0358 62.0305 26.1851 62.2758 26.3771 62.4838C26.5691 62.6918 26.8011 62.8545 27.0731 62.9718C27.3451 63.0891 27.6518 63.1478 27.9931 63.1478C28.3131 63.1478 28.6144 63.0945 28.8971 62.9878C29.1798 62.8758 29.4171 62.7425 29.6091 62.5878V61.1958H27.9051V60.6278H30.2171V62.8598C29.9558 63.0945 29.6331 63.2971 29.2491 63.4678C28.8704 63.6331 28.4438 63.7158 27.9691 63.7158Z" stroke="#1A2029" stroke-width="0.5"/>
<path d="M31.6425 58.0198H32.2745V63.0358H35.4265V63.6198H31.6425V58.0198Z" stroke="#1A2029" stroke-width="0.5"/>
<path d="M36.5957 58.0198H37.2357L39.2757 61.0758L41.3157 58.0198H41.9557V63.6198H41.3237V59.0838L39.2837 62.0838H39.2517L37.2117 59.0918V63.6198H36.5957V58.0198Z" stroke="#1A2029" stroke-width="0.5"/>
<path d="M43.365 62.7798H44.101V63.6198H43.365V62.7798Z" stroke="#1A2029" stroke-width="0.5"/>
<path d="M47.2619 63.7158C46.9579 63.7158 46.6752 63.6598 46.4139 63.5478C46.1579 63.4305 45.9339 63.2758 45.7419 63.0838C45.5552 62.8865 45.4086 62.6571 45.3019 62.3958C45.1952 62.1345 45.1419 61.8598 45.1419 61.5718V61.5558C45.1419 61.2625 45.1952 60.9851 45.3019 60.7238C45.4086 60.4625 45.5552 60.2331 45.7419 60.0358C45.9339 59.8385 46.1579 59.6838 46.4139 59.5718C46.6752 59.4545 46.9579 59.3958 47.2619 59.3958C47.4592 59.3958 47.6379 59.4145 47.7979 59.4518C47.9579 59.4891 48.1046 59.5425 48.2379 59.6118C48.3712 59.6758 48.4939 59.7531 48.6059 59.8438C48.7179 59.9345 48.8219 60.0305 48.9179 60.1318L48.5099 60.5638C48.3446 60.3931 48.1632 60.2465 47.9659 60.1238C47.7739 60.0011 47.5366 59.9398 47.2539 59.9398C47.0459 59.9398 46.8512 59.9825 46.6699 60.0678C46.4886 60.1478 46.3312 60.2598 46.1979 60.4038C46.0646 60.5478 45.9606 60.7185 45.8859 60.9158C45.8112 61.1078 45.7739 61.3158 45.7739 61.5398V61.5558C45.7739 61.7798 45.8112 61.9905 45.8859 62.1878C45.9659 62.3798 46.0726 62.5505 46.2059 62.6998C46.3446 62.8438 46.5046 62.9585 46.6859 63.0438C46.8726 63.1238 47.0752 63.1638 47.2939 63.1638C47.5606 63.1638 47.7952 63.1051 47.9979 62.9878C48.2059 62.8705 48.3926 62.7238 48.5579 62.5478L48.9499 62.9158C48.7419 63.1505 48.5046 63.3425 48.2379 63.4918C47.9766 63.6411 47.6512 63.7158 47.2619 63.7158Z" stroke="#1A2029" stroke-width="0.5"/>
<path d="M49.9682 59.4838H50.5842V60.2038C50.7229 59.9798 50.9042 59.7905 51.1282 59.6358C51.3522 59.4758 51.6429 59.3958 52.0002 59.3958C52.2509 59.3958 52.4722 59.4358 52.6642 59.5158C52.8616 59.5958 53.0269 59.7105 53.1602 59.8598C53.2989 60.0038 53.4029 60.1771 53.4722 60.3798C53.5469 60.5825 53.5842 60.8065 53.5842 61.0518V63.6198H52.9682V61.2038C52.9682 60.8198 52.8696 60.5158 52.6722 60.2918C52.4749 60.0678 52.1922 59.9558 51.8242 59.9558C51.6482 59.9558 51.4829 59.9878 51.3282 60.0518C51.1789 60.1105 51.0482 60.1985 50.9362 60.3158C50.8242 60.4278 50.7362 60.5638 50.6722 60.7238C50.6136 60.8838 50.5842 61.0598 50.5842 61.2518V63.6198H49.9682V59.4838Z" stroke="#1A2029" stroke-width="0.5"/>
</svg>
